<svg xmlns="http://www.w3.org/2000/svg" version="1.1" xmlns:xlink="http://www.w3.org/1999/xlink" xmlns:svgjs="http://svgjs.dev/svgjs" width="1440" height="250" preserveAspectRatio="none" viewBox="0 0 1440 250"><g mask="url(&quot;#SvgjsMask1014&quot;)" fill="none"><rect width="1440" height="250" x="0" y="0" fill="#0e2a47"></rect><path d="M39 250L289 0L346 0L96 250z" fill="url(&quot;#SvgjsLinearGradient1015&quot;)"></path><path d="M247.60000000000002 250L497.6 0L547.1 0L297.1 250z" fill="url(&quot;#SvgjsLinearGradient1015&quot;)"></path><path d="M494.20000000000005 250L744.2 0L1081.7 0L831.7 250z" fill="url(&quot;#SvgjsLinearGradient1015&quot;)"></path><path d="M716.8000000000001 250L966.8000000000001 0L1305.8000000000002 0L1055.8000000000002 250z" fill="url(&quot;#SvgjsLinearGradient1015&quot;)"></path><path d="M1408 250L1158 0L990 0L1240 250z" fill="url(&quot;#SvgjsLinearGradient1016&quot;)"></path><path d="M1200.4 250L950.4000000000001 0L647.4000000000001 0L897.4000000000001 250z" fill="url(&quot;#SvgjsLinearGradient1016&quot;)"></path><path d="M939.8 250L689.8 0L457.29999999999995 0L707.3 250z" fill="url(&quot;#SvgjsLinearGradient1016&quot;)"></path><path d="M690.1999999999999 250L440.19999999999993 0L218.19999999999993 0L468.19999999999993 250z" fill="url(&quot;#SvgjsLinearGradient1016&quot;)"></path><path d="M1242.924726032679 250L1440 52.92472603267899L1440 250z" fill="url(&quot;#SvgjsLinearGradient1015&quot;)"></path><path d="M0 250L197.075273967321 250L 0 52.92472603267899z" fill="url(&quot;#SvgjsLinearGradient1016&quot;)"></path></g><defs><mask id="SvgjsMask1014"><rect width="1440" height="250" fill="#ffffff"></rect></mask><linearGradient x1="0%" y1="100%" x2="100%" y2="0%" id="SvgjsLinearGradient1015"><stop stop-color="rgba(65, 100, 173, 0.2)" offset="0"></stop><stop stop-opacity="0" stop-color="rgba(65, 100, 173, 0.2)" offset="0.66"></stop></linearGradient><linearGradient x1="100%" y1="100%" x2="0%" y2="0%" id="SvgjsLinearGradient1016"><stop stop-color="rgba(65, 100, 173, 0.2)" offset="0"></stop><stop stop-opacity="0" stop-color="rgba(65, 100, 173, 0.2)" offset="0.66"></stop></linearGradient></defs></svg>